<svg xmlns="http://www.w3.org/2000/svg" xmlns:xlink="http://www.w3.org/1999/xlink" width="1920" zoomAndPan="magnify" viewBox="0 0 1440 809.999993" height="1080" preserveAspectRatio="xMidYMid meet" version="1.0"><defs><clipPath id="9d67d5ecb3"><path d="M 432 246.710938 L 1008 246.710938 L 1008 519.710938 L 432 519.710938 Z M 432 246.710938 " clip-rule="nonzero"/></clipPath></defs><rect x="-144" width="1728" fill="#ffffff" y="-80.999999" height="971.999992" fill-opacity="1"/><rect x="-144" width="1728" fill="#ffffff" y="-80.999999" height="971.999992" fill-opacity="1"/><g clip-path="url(#9d67d5ecb3)"><path fill="#cc0000" d="M 1008 424.089844 C 1008 421.398438 1005.191406 418.234375 1001.09375 418.234375 L 922.535156 418.820312 C 912.9375 410.855469 904.625 407.222656 894.320312 407.222656 C 879.21875 407.222656 868.800781 415.65625 864 419.40625 L 832.976562 418.820312 C 829.582031 418.234375 826.066406 420.460938 826.066406 423.035156 L 823.257812 443.066406 L 808.15625 256.832031 C 808.15625 254.136719 805.347656 251.558594 801.25 251.558594 C 797.855469 251.558594 794.339844 253.667969 794.339844 256.832031 L 781.230469 419.40625 L 774.320312 418.820312 L 764.019531 395.042969 C 764.019531 392.933594 761.210938 391.292969 758.515625 391.292969 C 755.707031 390.710938 753.015625 391.878906 751.609375 393.988281 L 738.496094 418.820312 L 702.671875 418.820312 C 693.074219 410.386719 684.058594 406.636719 672.351562 406.636719 C 657.835938 407.222656 647.53125 415.070312 642.730469 418.820312 L 615.21875 419.40625 C 611.824219 419.40625 608.3125 421.515625 608.3125 423.621094 L 605.503906 446.34375 L 589.816406 252.027344 C 589.816406 249.335938 587.003906 246.757812 582.90625 246.757812 C 579.511719 246.757812 576 248.398438 576 250.976562 L 563.589844 416.710938 L 555.980469 416.710938 L 545.679688 391.410156 C 544.976562 389.304688 542.28125 387.664062 538.769531 387.664062 C 535.257812 387.664062 533.269531 389.304688 531.863281 391.410156 L 520.859375 416.710938 L 438.90625 416.710938 C 435.511719 416.710938 432 420.460938 432 423.035156 C 432 425.613281 434.808594 429.363281 438.90625 429.363281 L 525.660156 429.363281 C 528.46875 429.363281 531.160156 427.722656 532.566406 425.613281 L 538.066406 411.910156 L 542.867188 425.613281 C 543.570312 427.722656 546.261719 429.828125 549.777344 429.828125 L 557.386719 429.828125 L 560.195312 439.316406 C 560.898438 442.011719 564.996094 443.535156 567.804688 443.066406 C 570.613281 442.480469 573.308594 440.371094 573.308594 437.792969 L 580.917969 341.164062 L 595.316406 513.8125 C 595.316406 515.917969 598.710938 517.558594 602.925781 517.558594 C 606.320312 517.558594 609.835938 515.917969 609.835938 513.34375 L 620.839844 428.425781 L 644.253906 428.425781 C 647.0625 428.425781 649.054688 427.839844 649.757812 426.316406 C 649.757812 425.730469 659.355469 416.242188 670.476562 416.242188 C 677.386719 416.242188 684.996094 419.992188 691.199219 426.316406 C 693.308594 427.957031 694.59375 428.425781 696.703125 428.425781 L 740.136719 427.839844 C 742.242188 427.839844 744.9375 427.253906 745.640625 425.144531 L 753.25 410.855469 L 758.75 424.089844 C 759.453125 426.199219 761.5625 427.839844 764.253906 427.839844 L 769.757812 427.839844 L 773.152344 438.964844 C 773.855469 441.074219 777.953125 442.714844 780.761719 442.714844 C 783.570312 442.714844 786.261719 440.605469 786.261719 438.496094 L 794.574219 339.757812 L 809.09375 514.398438 C 809.09375 517.089844 811.902344 519.667969 816 519.667969 C 819.394531 519.667969 822.90625 517.558594 822.90625 515.449219 L 833.210938 429.945312 L 861.425781 430.53125 C 862.125 430.53125 862.125 430.53125 862.125 430.53125 C 864.9375 430.53125 865.523438 428.894531 867.628906 427.839844 C 870.4375 425.144531 877.933594 418.351562 887.648438 418.351562 C 894.554688 418.351562 900.761719 422.097656 907.667969 428.425781 C 909.777344 429.011719 911.0625 430.53125 913.171875 430.53125 L 994.417969 429.945312 C 1001.09375 429.828125 1008 426.199219 1008 424.089844 Z M 1008 424.089844 " fill-opacity="1" fill-rule="nonzero"/></g></svg>