<svg xmlns="http://www.w3.org/2000/svg" xmlns:xlink="http://www.w3.org/1999/xlink" width="1920" zoomAndPan="magnify" viewBox="0 0 1440 809.999993" height="1080" preserveAspectRatio="xMidYMid meet" version="1.0"><defs><clipPath id="2bc060455b"><path d="M 432 326.519531 L 1008 326.519531 L 1008 351 L 432 351 Z M 432 326.519531 " clip-rule="nonzero"/></clipPath><clipPath id="4b46a6da41"><path d="M 671 385 L 770 385 L 770 483.269531 L 671 483.269531 Z M 671 385 " clip-rule="nonzero"/></clipPath></defs><rect x="-144" width="1728" fill="#ffffff" y="-80.999999" height="971.999992" fill-opacity="1"/><rect x="-144" width="1728" fill="#ffffff" y="-80.999999" height="971.999992" fill-opacity="1"/><g clip-path="url(#2bc060455b)"><path fill="#cc0000" d="M 1005.617188 336.800781 L 612.09375 336.800781 C 611.132812 331.105469 606.179688 326.761719 600.214844 326.761719 C 594.894531 326.761719 590.402344 330.195312 588.792969 334.960938 L 435.800781 334.960938 C 433.8125 334.960938 432.1875 336.476562 431.988281 338.410156 C 431.960938 338.546875 431.945312 338.679688 431.945312 338.816406 C 431.945312 338.953125 431.960938 339.085938 431.988281 339.222656 C 432.1875 341.15625 433.8125 342.671875 435.800781 342.671875 L 588.792969 342.671875 C 590.402344 347.433594 594.910156 350.871094 600.214844 350.871094 C 606.179688 350.871094 611.132812 346.527344 612.09375 340.832031 L 1005.617188 340.832031 C 1006.742188 340.832031 1007.648438 339.925781 1007.648438 338.800781 C 1007.648438 337.71875 1006.742188 336.800781 1005.617188 336.800781 Z M 1005.617188 336.800781 " fill-opacity="1" fill-rule="nonzero"/></g><path fill="#cc0000" d="M 565.980469 437.375 L 597.332031 457.332031 C 599.238281 458.550781 601.726562 457.183594 601.726562 454.921875 L 601.726562 413.761719 C 601.726562 411.503906 599.238281 410.136719 597.332031 411.355469 L 565.980469 431.3125 C 563.761719 432.71875 563.761719 435.964844 565.980469 437.375 Z M 565.980469 437.375 " fill-opacity="1" fill-rule="nonzero"/><path fill="#cc0000" d="M 559.472656 455.246094 L 555.0625 455.246094 C 554.371094 455.246094 553.804688 454.679688 553.804688 453.988281 L 553.804688 414.695312 C 553.804688 414.007812 554.371094 413.4375 555.0625 413.4375 L 559.472656 413.4375 C 560.164062 413.4375 560.730469 414.007812 560.730469 414.695312 L 560.730469 453.988281 C 560.730469 454.679688 560.164062 455.246094 559.472656 455.246094 Z M 559.472656 455.246094 " fill-opacity="1" fill-rule="nonzero"/><path fill="#cc0000" d="M 875.546875 431.3125 L 844.199219 411.355469 C 842.289062 410.136719 839.800781 411.503906 839.800781 413.761719 L 839.800781 454.921875 C 839.800781 457.183594 842.289062 458.550781 844.199219 457.332031 L 875.546875 437.375 C 877.765625 435.964844 877.765625 432.71875 875.546875 431.3125 Z M 875.546875 431.3125 " fill-opacity="1" fill-rule="nonzero"/><path fill="#cc0000" d="M 882.054688 413.4375 L 886.46875 413.4375 C 887.15625 413.4375 887.726562 414.007812 887.726562 414.695312 L 887.726562 453.988281 C 887.726562 454.679688 887.15625 455.246094 886.46875 455.246094 L 882.054688 455.246094 C 881.367188 455.246094 880.796875 454.679688 880.796875 453.988281 L 880.796875 414.695312 C 880.796875 414.007812 881.367188 413.4375 882.054688 413.4375 Z M 882.054688 413.4375 " fill-opacity="1" fill-rule="nonzero"/><g clip-path="url(#4b46a6da41)"><path fill="#cc0000" d="M 720.769531 385.335938 C 693.695312 385.335938 671.761719 407.28125 671.761719 434.34375 C 671.761719 461.417969 693.710938 483.351562 720.769531 483.351562 C 747.847656 483.351562 769.777344 461.402344 769.777344 434.34375 C 769.777344 407.28125 747.832031 385.335938 720.769531 385.335938 Z M 714.871094 448.605469 C 714.871094 451.269531 712.695312 453.449219 710.027344 453.449219 C 707.363281 453.449219 705.183594 451.269531 705.183594 448.605469 L 705.183594 420.082031 C 705.183594 417.414062 707.363281 415.238281 710.027344 415.238281 C 712.695312 415.238281 714.871094 417.414062 714.871094 420.082031 Z M 736.359375 448.605469 C 736.359375 451.269531 734.179688 453.449219 731.515625 453.449219 C 728.847656 453.449219 726.671875 451.269531 726.671875 448.605469 L 726.671875 420.082031 C 726.671875 417.414062 728.835938 415.238281 731.515625 415.238281 C 734.179688 415.238281 736.359375 417.414062 736.359375 420.082031 Z M 736.359375 448.605469 " fill-opacity="1" fill-rule="nonzero"/></g><path fill="#cc0000" d="M 964.878906 425.589844 L 975.175781 425.589844 L 975.175781 429.066406 C 975.175781 429.742188 975.917969 430.148438 976.5 429.796875 L 985.90625 423.800781 C 986.566406 423.382812 986.566406 422.410156 985.90625 421.976562 L 976.5 415.980469 C 975.933594 415.617188 975.175781 416.023438 975.175781 416.710938 L 975.175781 420.191406 L 964.972656 420.191406 C 956.882812 420.191406 949.789062 426.183594 949.035156 434.246094 C 948.207031 443.054688 954.769531 450.566406 963.242188 451.242188 C 963.917969 451.296875 964.511719 450.78125 964.511719 450.09375 L 964.511719 446.964844 C 964.511719 446.398438 964.09375 445.882812 963.523438 445.832031 C 957.964844 445.289062 953.714844 440.242188 954.460938 434.398438 C 955.121094 429.28125 959.722656 425.589844 964.878906 425.589844 Z M 964.878906 425.589844 " fill-opacity="1" fill-rule="nonzero"/><path fill="#cc0000" d="M 991.585938 421.378906 L 991.585938 424.503906 C 991.585938 425.074219 992.007812 425.589844 992.574219 425.640625 C 998.136719 426.183594 1002.382812 431.230469 1001.640625 437.074219 C 1000.992188 442.191406 996.390625 445.882812 991.234375 445.882812 L 980.9375 445.882812 L 980.9375 442.40625 C 980.9375 441.730469 980.195312 441.324219 979.613281 441.675781 L 970.207031 447.671875 C 969.546875 448.089844 969.546875 449.0625 970.207031 449.496094 L 979.613281 455.492188 C 980.179688 455.855469 980.9375 455.449219 980.9375 454.761719 L 980.9375 451.28125 L 991.140625 451.28125 C 999.230469 451.28125 1006.320312 445.289062 1007.078125 437.222656 C 1007.90625 428.417969 1001.34375 420.90625 992.871094 420.214844 C 992.183594 420.175781 991.585938 420.691406 991.585938 421.378906 Z M 991.585938 421.378906 " fill-opacity="1" fill-rule="nonzero"/><path fill="#cc0000" d="M 474.378906 441.3125 C 473.808594 440.945312 473.050781 441.351562 473.050781 442.042969 L 473.050781 445.519531 L 466.773438 445.519531 C 464.242188 445.519531 461.902344 444.140625 460.671875 441.917969 L 457.261719 435.75 L 460.671875 429.578125 C 461.902344 427.359375 464.230469 425.980469 466.773438 425.980469 L 473.050781 425.980469 L 473.050781 429.457031 C 473.050781 430.132812 473.796875 430.539062 474.378906 430.1875 L 483.78125 424.195312 C 484.445312 423.773438 484.445312 422.800781 483.78125 422.367188 L 474.378906 416.375 C 473.808594 416.007812 473.050781 416.414062 473.050781 417.105469 L 473.050781 420.582031 L 466.773438 420.582031 C 462.269531 420.582031 458.113281 423.03125 455.9375 426.96875 L 454.164062 430.175781 L 451.984375 426.222656 C 449.804688 422.285156 445.652344 419.835938 441.148438 419.835938 L 433.597656 419.835938 C 432.960938 419.835938 432.445312 420.351562 432.445312 420.988281 L 432.445312 424.101562 C 432.445312 424.734375 432.960938 425.25 433.597656 425.25 L 441.148438 425.25 C 443.675781 425.25 446.019531 426.628906 447.25 428.847656 L 451.078125 435.761719 L 447.25 442.675781 C 446.019531 444.898438 443.691406 446.277344 441.148438 446.277344 L 433.597656 446.277344 C 432.960938 446.277344 432.445312 446.789062 432.445312 447.425781 L 432.445312 450.539062 C 432.445312 451.175781 432.960938 451.6875 433.597656 451.6875 L 441.148438 451.6875 C 445.652344 451.6875 449.804688 449.238281 451.984375 445.300781 L 454.164062 441.351562 L 455.9375 444.558594 C 458.113281 448.496094 462.269531 450.945312 466.773438 450.945312 L 473.050781 450.945312 L 473.050781 454.421875 C 473.050781 455.097656 473.796875 455.503906 474.378906 455.152344 L 483.78125 449.160156 C 484.445312 448.738281 484.445312 447.765625 483.78125 447.332031 Z M 474.378906 441.3125 " fill-opacity="1" fill-rule="nonzero"/></svg>