<svg xmlns="http://www.w3.org/2000/svg" xmlns:xlink="http://www.w3.org/1999/xlink" width="1920" zoomAndPan="magnify" viewBox="0 0 1440 809.999993" height="1080" preserveAspectRatio="xMidYMid meet" version="1.0"><rect x="-144" width="1728" fill="#ffffff" y="-80.999999" height="971.999992" fill-opacity="1"/><rect x="-144" width="1728" fill="#ffffff" y="-80.999999" height="971.999992" fill-opacity="1"/><path fill="#cc0000" d="M 672.96875 347.515625 C 615.339844 347.515625 568.453125 394.40625 568.453125 452.03125 C 568.453125 509.660156 615.339844 556.546875 672.96875 556.546875 C 730.59375 556.546875 777.484375 509.660156 777.484375 452.03125 C 777.484375 394.40625 730.59375 347.515625 672.96875 347.515625 Z M 672.96875 567 C 609.5625 567 558 515.4375 558 452.03125 C 558 388.628906 609.5625 337.066406 672.96875 337.066406 C 736.371094 337.066406 787.933594 388.628906 787.933594 452.03125 C 787.933594 515.4375 736.371094 567 672.96875 567 " fill-opacity="1" fill-rule="nonzero"/><path fill="#cc0000" d="M 803.226562 439.335938 C 800.816406 439.335938 798.652344 437.683594 798.121094 435.253906 C 797.507812 432.414062 799.265625 429.640625 802.101562 429.007812 C 842.335938 420.066406 871.546875 383.585938 871.546875 342.289062 C 871.546875 293.296875 831.703125 253.453125 782.710938 253.453125 C 740.699219 253.453125 704.097656 283.277344 695.667969 324.386719 C 695.097656 327.203125 692.339844 329.042969 689.503906 328.449219 C 686.683594 327.878906 684.867188 325.121094 685.441406 322.285156 C 694.832031 276.355469 735.757812 243 782.710938 243 C 837.457031 243 882 287.542969 882 342.289062 C 882 388.445312 849.359375 429.210938 804.367188 439.210938 C 803.980469 439.292969 803.59375 439.335938 803.226562 439.335938 " fill-opacity="1" fill-rule="nonzero"/><path fill="#cc0000" d="M 725.144531 311.464844 C 724.183594 311.464844 723.226562 311.199219 722.367188 310.671875 C 719.917969 309.117188 719.183594 305.894531 720.714844 303.464844 C 727.125 293.257812 736.042969 284.703125 746.496094 278.742188 C 749.007812 277.316406 752.191406 278.171875 753.621094 280.683594 C 755.070312 283.171875 754.191406 286.378906 751.679688 287.808594 C 742.71875 292.929688 735.085938 300.28125 729.574219 309.015625 C 728.574219 310.609375 726.878906 311.464844 725.144531 311.464844 " fill-opacity="1" fill-rule="nonzero"/><path fill="#cc0000" d="M 599.804688 253.453125 C 582.515625 253.453125 568.453125 267.515625 568.453125 284.804688 C 568.453125 302.097656 582.515625 316.160156 599.804688 316.160156 C 617.097656 316.160156 631.160156 302.097656 631.160156 284.804688 C 631.160156 267.515625 617.097656 253.453125 599.804688 253.453125 Z M 599.804688 326.613281 C 576.761719 326.613281 558 307.851562 558 284.804688 C 558 261.761719 576.761719 243 599.804688 243 C 622.851562 243 641.613281 261.761719 641.613281 284.804688 C 641.613281 307.851562 622.851562 326.613281 599.804688 326.613281 " fill-opacity="1" fill-rule="nonzero"/><path fill="#cc0000" d="M 842.804688 499.066406 C 826.964844 499.066406 814.066406 511.964844 814.066406 527.804688 C 814.066406 543.648438 826.964844 556.546875 842.804688 556.546875 C 858.648438 556.546875 871.546875 543.648438 871.546875 527.804688 C 871.546875 511.964844 858.648438 499.066406 842.804688 499.066406 Z M 842.804688 567 C 821.1875 567 803.613281 549.425781 803.613281 527.804688 C 803.613281 506.1875 821.1875 488.613281 842.804688 488.613281 C 864.425781 488.613281 882 506.1875 882 527.804688 C 882 549.425781 864.425781 567 842.804688 567 " fill-opacity="1" fill-rule="nonzero"/><path fill="#cc0000" d="M 657.289062 405 C 642.878906 405 631.160156 416.71875 631.160156 431.128906 L 631.160156 472.933594 C 631.160156 487.347656 642.878906 499.066406 657.289062 499.066406 C 671.703125 499.066406 683.417969 487.347656 683.417969 472.933594 L 683.417969 431.128906 C 683.417969 416.71875 671.703125 405 657.289062 405 Z M 657.289062 509.515625 C 637.121094 509.515625 620.710938 493.105469 620.710938 472.933594 L 620.710938 431.128906 C 620.710938 410.960938 637.121094 394.546875 657.289062 394.546875 C 677.457031 394.546875 693.871094 410.960938 693.871094 431.128906 L 693.871094 472.933594 C 693.871094 493.105469 677.457031 509.515625 657.289062 509.515625 " fill-opacity="1" fill-rule="nonzero"/><path fill="#cc0000" d="M 730.453125 514.742188 L 709.546875 514.742188 C 707.464844 514.742188 705.566406 513.496094 704.75 511.578125 C 703.914062 509.660156 704.324219 507.433594 705.773438 505.902344 L 723.226562 487.570312 C 723.410156 487.328125 723.59375 487.082031 723.816406 486.855469 C 724.734375 485.9375 725.226562 484.734375 725.226562 483.386719 C 725.226562 480.507812 722.878906 478.160156 720 478.160156 C 717.121094 478.160156 714.773438 480.507812 714.773438 483.386719 C 714.773438 486.265625 712.425781 488.613281 709.546875 488.613281 C 706.671875 488.613281 704.324219 486.265625 704.324219 483.386719 C 704.324219 474.730469 711.34375 467.710938 720 467.710938 C 728.65625 467.710938 735.675781 474.730469 735.675781 483.386719 C 735.675781 487.164062 734.351562 490.734375 731.902344 493.511719 C 731.738281 493.757812 731.554688 493.980469 731.351562 494.207031 L 721.734375 504.289062 L 730.453125 504.289062 C 733.328125 504.289062 735.675781 506.636719 735.675781 509.515625 C 735.675781 512.394531 733.328125 514.742188 730.453125 514.742188 " fill-opacity="1" fill-rule="nonzero"/></svg>