<svg xmlns="http://www.w3.org/2000/svg" xmlns:xlink="http://www.w3.org/1999/xlink" width="1920" zoomAndPan="magnify" viewBox="0 0 1440 809.999993" height="1080" preserveAspectRatio="xMidYMid meet" version="1.0"><defs><clipPath id="9936d292ed"><path d="M 646.492188 243 L 763 243 L 763 567 L 646.492188 567 Z M 646.492188 243 " clip-rule="nonzero"/></clipPath><clipPath id="23a94557fa"><path d="M 746 443 L 793.492188 443 L 793.492188 455 L 746 455 Z M 746 443 " clip-rule="nonzero"/></clipPath><clipPath id="b6d7997b5c"><path d="M 746 389 L 793.492188 389 L 793.492188 402 L 746 402 Z M 746 389 " clip-rule="nonzero"/></clipPath><clipPath id="5532525a6e"><path d="M 746 336 L 793.492188 336 L 793.492188 348 L 746 348 Z M 746 336 " clip-rule="nonzero"/></clipPath><clipPath id="61ffa1f552"><path d="M 746 282 L 793.492188 282 L 793.492188 295 L 746 295 Z M 746 282 " clip-rule="nonzero"/></clipPath></defs><rect x="-144" width="1728" fill="#ffffff" y="-80.999999" height="971.999992" fill-opacity="1"/><rect x="-144" width="1728" fill="#ffffff" y="-80.999999" height="971.999992" fill-opacity="1"/><path fill="#cc0000" d="M 710.148438 476.28125 C 710.148438 476.085938 710.148438 475.957031 710.148438 475.761719 L 710.148438 275.984375 C 710.148438 272.808594 707.558594 270.214844 704.382812 270.214844 C 701.207031 270.214844 698.613281 272.808594 698.613281 275.984375 L 698.613281 475.761719 C 698.613281 475.957031 698.613281 476.085938 698.613281 476.28125 C 682.933594 479 671.007812 492.675781 671.007812 509.132812 C 671.007812 527.535156 685.914062 542.503906 704.382812 542.503906 C 722.785156 542.503906 737.753906 527.601562 737.753906 509.132812 C 737.753906 492.675781 725.832031 479 710.148438 476.28125 Z M 710.148438 476.28125 " fill-opacity="1" fill-rule="nonzero"/><g clip-path="url(#9936d292ed)"><path fill="#cc0000" d="M 737.363281 461.570312 L 737.363281 275.984375 C 737.363281 257.773438 722.589844 243 704.382812 243 C 686.238281 243 671.398438 257.773438 671.398438 275.984375 L 671.398438 461.570312 C 664.335938 466.496094 658.375 472.976562 654.097656 480.425781 C 649.171875 489.109375 646.515625 499.023438 646.515625 509.132812 C 646.515625 541.015625 672.5 567 704.382812 567 C 736.261719 567 762.246094 541.015625 762.246094 509.132812 C 762.246094 499.023438 759.589844 489.109375 754.667969 480.425781 C 750.390625 472.910156 744.429688 466.496094 737.363281 461.570312 Z M 704.382812 555.402344 C 678.851562 555.402344 658.050781 534.601562 658.050781 509.070312 C 658.050781 492.804688 666.34375 478.09375 680.210938 469.539062 C 681.894531 468.503906 682.996094 466.625 682.996094 464.617188 L 682.996094 275.984375 C 682.996094 264.191406 692.589844 254.597656 704.382812 254.597656 C 716.175781 254.597656 725.765625 264.191406 725.765625 275.984375 L 725.765625 464.679688 C 725.765625 466.691406 726.800781 468.570312 728.550781 469.605469 C 742.417969 478.09375 750.714844 492.867188 750.714844 509.132812 C 750.714844 534.664062 729.914062 555.402344 704.382812 555.402344 Z M 704.382812 555.402344 " fill-opacity="1" fill-rule="nonzero"/></g><g clip-path="url(#23a94557fa)"><path fill="#cc0000" d="M 787.714844 443.167969 L 751.816406 443.167969 C 748.640625 443.167969 746.046875 445.757812 746.046875 448.933594 C 746.046875 452.109375 748.640625 454.703125 751.816406 454.703125 L 787.714844 454.703125 C 790.890625 454.703125 793.480469 452.109375 793.480469 448.933594 C 793.480469 445.757812 790.890625 443.167969 787.714844 443.167969 Z M 787.714844 443.167969 " fill-opacity="1" fill-rule="nonzero"/></g><path fill="#cc0000" d="M 751.816406 428.003906 L 773.199219 428.003906 C 776.375 428.003906 778.964844 425.410156 778.964844 422.238281 C 778.964844 419.0625 776.375 416.46875 773.199219 416.46875 L 751.816406 416.46875 C 748.640625 416.46875 746.046875 419.0625 746.046875 422.238281 C 746.046875 425.410156 748.640625 428.003906 751.816406 428.003906 Z M 751.816406 428.003906 " fill-opacity="1" fill-rule="nonzero"/><g clip-path="url(#b6d7997b5c)"><path fill="#cc0000" d="M 787.714844 389.707031 L 751.816406 389.707031 C 748.640625 389.707031 746.046875 392.300781 746.046875 395.472656 C 746.046875 398.648438 748.640625 401.242188 751.816406 401.242188 L 787.714844 401.242188 C 790.890625 401.242188 793.480469 398.648438 793.480469 395.472656 C 793.480469 392.300781 790.890625 389.707031 787.714844 389.707031 Z M 787.714844 389.707031 " fill-opacity="1" fill-rule="nonzero"/></g><path fill="#cc0000" d="M 751.816406 374.542969 L 773.199219 374.542969 C 776.375 374.542969 778.964844 371.953125 778.964844 368.777344 C 778.964844 365.601562 776.375 363.007812 773.199219 363.007812 L 751.816406 363.007812 C 748.640625 363.007812 746.046875 365.601562 746.046875 368.777344 C 746.046875 371.953125 748.640625 374.542969 751.816406 374.542969 Z M 751.816406 374.542969 " fill-opacity="1" fill-rule="nonzero"/><g clip-path="url(#5532525a6e)"><path fill="#cc0000" d="M 787.714844 336.246094 L 751.816406 336.246094 C 748.640625 336.246094 746.046875 338.839844 746.046875 342.015625 C 746.046875 345.191406 748.640625 347.78125 751.816406 347.78125 L 787.714844 347.78125 C 790.890625 347.78125 793.480469 345.191406 793.480469 342.015625 C 793.480469 338.839844 790.890625 336.246094 787.714844 336.246094 Z M 787.714844 336.246094 " fill-opacity="1" fill-rule="nonzero"/></g><path fill="#cc0000" d="M 751.816406 321.085938 L 773.199219 321.085938 C 776.375 321.085938 778.964844 318.492188 778.964844 315.316406 C 778.964844 312.140625 776.375 309.550781 773.199219 309.550781 L 751.816406 309.550781 C 748.640625 309.550781 746.046875 312.140625 746.046875 315.316406 C 746.046875 318.492188 748.640625 321.085938 751.816406 321.085938 Z M 751.816406 321.085938 " fill-opacity="1" fill-rule="nonzero"/><g clip-path="url(#61ffa1f552)"><path fill="#cc0000" d="M 751.816406 294.386719 L 787.714844 294.386719 C 790.890625 294.386719 793.480469 291.792969 793.480469 288.621094 C 793.480469 285.445312 790.890625 282.851562 787.714844 282.851562 L 751.816406 282.851562 C 748.640625 282.851562 746.046875 285.445312 746.046875 288.621094 C 746.046875 291.792969 748.640625 294.386719 751.816406 294.386719 Z M 751.816406 294.386719 " fill-opacity="1" fill-rule="nonzero"/></g></svg>